<?xml version="1.0" encoding="iso-8859-1"?>
<!-- Generator: Adobe Illustrator 16.0.0, SVG Export Plug-In . SVG Version: 6.00 Build 0)  -->
<!DOCTYPE svg PUBLIC "-//W3C//DTD SVG 1.1//EN" "http://www.w3.org/Graphics/SVG/1.1/DTD/svg11.dtd">
<svg version="1.1" id="Capa_1" xmlns="http://www.w3.org/2000/svg" xmlns:xlink="http://www.w3.org/1999/xlink" x="0px" y="0px"
	 width="430.001px" height="430.001px" viewBox="0 0 430.001 430.001" style="enable-background:new 0 0 430.001 430.001;"
	 xml:space="preserve">
<g>
	<path d="M334.966,198.217c0-13.203-2.132-26.061-6.18-38.183c34.926,4.968,69.189,13.271,101.214,26.846
		c-16.788-37.31-60.51-63.054-96.767-77.582c-34.182-13.697-71.151-20.486-107.917-21.189h-20.633
		c-36.766,0.703-73.736,7.492-107.917,21.189C60.51,123.826,16.788,149.57,0,186.88c32.023-13.574,66.288-21.877,101.214-26.846
		c-4.048,12.122-6.18,24.98-6.18,38.183c0,27.988,9.637,53.764,25.762,74.195C79.129,267.917,37.989,259.224,0,243.121
		c16.788,37.311,60.51,63.055,96.767,77.582c34.181,13.697,71.151,20.486,107.917,21.189h20.632
		c36.767-0.703,73.736-7.492,107.918-21.189c36.257-14.527,79.979-40.271,96.767-77.582
		c-37.989,16.104-79.129,24.797-120.796,29.291C325.329,251.981,334.966,226.205,334.966,198.217z M220.468,171.077
		c3.753-3.751,11.841-1.743,18.067,4.485c6.23,6.228,8.238,14.318,4.484,18.068c-3.748,3.751-11.84,1.743-18.066-4.484
		C218.727,182.917,216.719,174.829,220.468,171.077z M205.775,153.25c-21.066,4.272-36.928,22.896-36.928,45.229
		c0,25.489,20.663,46.153,46.152,46.153s46.151-20.664,46.151-46.153c0-22.332-15.86-40.956-36.928-45.229
		c17.789,0.107,35.816,0.595,53.866,1.72c8.645,12.562,13.382,27.521,13.382,43.247c0,42.167-34.307,76.472-76.473,76.472
		s-76.473-34.307-76.473-76.472c0-15.727,4.738-30.686,13.382-43.247C169.959,153.845,187.986,153.357,205.775,153.25z"/>
</g>
<g>
</g>
<g>
</g>
<g>
</g>
<g>
</g>
<g>
</g>
<g>
</g>
<g>
</g>
<g>
</g>
<g>
</g>
<g>
</g>
<g>
</g>
<g>
</g>
<g>
</g>
<g>
</g>
<g>
</g>
</svg>
